<svg width="0" height="0" class="hidden">
  <symbol fill="none" xmlns="http://www.w3.org/2000/svg" viewBox="0 0 32 31" id="payments">
    <path fill-rule="evenodd" clip-rule="evenodd" d="M8.34633 10.3334C6.13862 10.3334 4.33301 12.139 4.33301 14.3467V18.4477C5.05655 18.1594 5.84415 18 6.66634 18C10.1653 18 12.9997 20.8344 12.9997 24.3334C12.9997 25.4102 12.7261 26.4383 12.2355 27.3334H23.653C25.8607 27.3334 27.6663 25.5277 27.6663 23.32V22.7334H26.133C24.2536 22.7334 22.4294 21.3591 22.257 19.329C22.1493 18.1794 22.587 17.1054 23.3454 16.36C24.0276 15.6642 24.9628 15.2667 25.973 15.2667H27.6663V14.3467C27.6663 12.139 25.8607 10.3334 23.653 10.3334H8.34633ZM2.33301 14.3467C2.33301 11.0344 5.03404 8.33337 8.34633 8.33337H23.653C26.9653 8.33337 29.6663 11.0344 29.6663 14.3467V16.2667C29.6663 16.819 29.2186 17.2667 28.6663 17.2667H25.973C25.4943 17.2667 25.0732 17.4523 24.7695 17.7643L24.7515 17.7823C24.3968 18.1286 24.1986 18.6216 24.2485 19.1452L24.2496 19.157L24.2496 19.157C24.3201 20.0036 25.1342 20.7334 26.133 20.7334H28.6663C29.2186 20.7334 29.6663 21.1811 29.6663 21.7334V23.32C29.6663 26.6323 26.9653 29.3334 23.653 29.3334H10.173C9.75257 29.3334 9.37704 29.0704 9.23328 28.6753C9.08953 28.2802 9.20826 27.8374 9.5304 27.5672C9.85433 27.2955 10.1399 26.9579 10.3626 26.5762L10.3752 26.5551C10.7723 25.9111 10.9997 25.1459 10.9997 24.3334C10.9997 21.939 9.06072 20 6.66634 20C5.65096 20 4.70843 20.3558 3.95632 20.9554C3.65597 21.1948 3.24505 21.241 2.89902 21.0743C2.55299 20.9076 2.33301 20.5575 2.33301 20.1734V14.3467Z" fill="#A4A4A4"></path>
    <path fill-rule="evenodd" clip-rule="evenodd" d="M18.7997 4.26675C18.7997 3.19006 17.7236 2.45088 16.7274 2.82847L6.14023 6.82867C5.05121 7.24094 4.33301 8.28069 4.33301 9.45344V15.5467C4.33301 16.099 3.88529 16.5467 3.33301 16.5467C2.78072 16.5467 2.33301 16.099 2.33301 15.5467V9.45344C2.33301 7.45302 3.56172 5.66594 5.43244 4.9581L16.0186 0.958298C18.3291 0.082551 20.7997 1.79678 20.7997 4.26675V9.33341C20.7997 9.88569 20.352 10.3334 19.7997 10.3334C19.2474 10.3334 18.7997 9.88569 18.7997 9.33341V4.26675Z" fill="#A4A4A4"></path>
    <path fill-rule="evenodd" clip-rule="evenodd" d="M25.9714 17.267C25.4927 17.267 25.0716 17.4526 24.7679 17.7646L24.7499 17.7825C24.3952 18.1288 24.197 18.6218 24.2469 19.1455L24.248 19.1572L24.248 19.1572C24.3185 20.0039 25.1326 20.7336 26.1314 20.7336H28.7218C28.9373 20.7197 29.0781 20.5512 29.0781 20.3737V17.6269C29.0781 17.4494 28.9373 17.2809 28.7218 17.267H25.9714ZM23.3438 16.3602C24.026 15.6645 24.9612 15.267 25.9714 15.267H28.7447C28.7566 15.267 28.7685 15.2672 28.7804 15.2676C30.0511 15.313 31.0781 16.3412 31.0781 17.6269V20.3737C31.0781 21.6594 30.0511 22.6876 28.7804 22.733C28.7685 22.7334 28.7566 22.7336 28.7447 22.7336H26.1314C24.252 22.7336 22.4278 21.3593 22.2554 19.3292C22.1477 18.1796 22.5854 17.1057 23.3438 16.3602Z" fill="#A4A4A4"></path>
    <path fill-rule="evenodd" clip-rule="evenodd" d="M8.33301 15.0001C8.33301 14.4478 8.78072 14.0001 9.33301 14.0001H18.6663C19.2186 14.0001 19.6663 14.4478 19.6663 15.0001C19.6663 15.5523 19.2186 16.0001 18.6663 16.0001H9.33301C8.78072 16.0001 8.33301 15.5523 8.33301 15.0001Z" fill="#A4A4A4"></path>
    <path fill-rule="evenodd" clip-rule="evenodd" d="M6.66634 20.0001C5.65096 20.0001 4.70843 20.3559 3.95632 20.9554L3.95458 20.9568L3.95458 20.9568C2.96101 21.7451 2.33301 22.9661 2.33301 24.3334C2.33301 25.1459 2.56036 25.9111 2.95751 26.5552L2.9659 26.5688L2.96579 26.5688C3.7122 27.8237 5.08517 28.6667 6.66634 28.6667C7.76326 28.6667 8.75232 28.2667 9.50405 27.5901C9.5127 27.5823 9.52149 27.5747 9.5304 27.5672C9.85433 27.2955 10.1399 26.9579 10.3626 26.5762L10.3752 26.5552C10.7723 25.9111 10.9997 25.1459 10.9997 24.3334C10.9997 21.939 9.06072 20.0001 6.66634 20.0001ZM2.71056 19.3907C3.79832 18.524 5.17545 18.0001 6.66634 18.0001C10.1653 18.0001 12.9997 20.8344 12.9997 24.3334C12.9997 25.5166 12.6694 26.6408 12.0839 27.5946C11.7505 28.1633 11.323 28.6713 10.8291 29.0883C9.71575 30.0847 8.2566 30.6667 6.66634 30.6667C4.35705 30.6667 2.34549 29.4329 1.25098 27.5981C0.66408 26.6436 0.333008 25.5181 0.333008 24.3334C0.333008 22.3411 1.25131 20.549 2.71056 19.3907Z" fill="#A4A4A4"></path>
    <path fill-rule="evenodd" clip-rule="evenodd" d="M9.48203 22.3471C9.85703 22.7525 9.83233 23.3852 9.42687 23.7602L6.58687 26.3868C6.19255 26.7515 5.58056 26.7396 5.20077 26.3598L3.88078 25.0398C3.49026 24.6493 3.49026 24.0161 3.88078 23.6256C4.27131 23.2351 4.90447 23.2351 5.295 23.6256L5.93494 24.2655L8.06889 22.2919C8.47435 21.9169 9.10704 21.9416 9.48203 22.3471Z" fill="#A4A4A4"></path>
  </symbol>
  <symbol fill="none" xmlns="http://www.w3.org/2000/svg" viewBox="0 0 30 30" id="browsing">
    <path fill-rule="evenodd" clip-rule="evenodd" d="M17.9599 1.95952C18.8802 1.03917 20.1795 0.666626 21.667 0.666626H24.3337C25.8211 0.666626 27.1204 1.03917 28.0408 1.95952C28.9611 2.87987 29.3337 4.17915 29.3337 5.66663V8.33329C29.3337 9.82077 28.9611 11.1201 28.0408 12.0404C27.1204 12.9607 25.8211 13.3333 24.3337 13.3333H21.667C20.1795 13.3333 18.8802 12.9607 17.9599 12.0404C17.0395 11.1201 16.667 9.82077 16.667 8.33329V5.66663C16.667 4.17915 17.0395 2.87987 17.9599 1.95952ZM19.3741 3.37373C18.9611 3.78672 18.667 4.48744 18.667 5.66663V8.33329C18.667 9.51248 18.9611 10.2132 19.3741 10.6262C19.7871 11.0392 20.4878 11.3333 21.667 11.3333H24.3337C25.5128 11.3333 26.2136 11.0392 26.6266 10.6262C27.0395 10.2132 27.3337 9.51248 27.3337 8.33329V5.66663C27.3337 4.48744 27.0395 3.78672 26.6266 3.37373C26.2136 2.96075 25.5128 2.66663 24.3337 2.66663H21.667C20.4878 2.66663 19.7871 2.96075 19.3741 3.37373Z" fill="#A4A4A4"></path>
    <path fill-rule="evenodd" clip-rule="evenodd" d="M1.95989 17.9595C2.88023 17.0392 4.17951 16.6666 5.66699 16.6666H8.33366C9.82114 16.6666 11.1204 17.0392 12.0408 17.9595C12.9611 18.8799 13.3337 20.1791 13.3337 21.6666V24.3333C13.3337 25.8208 12.9611 27.1201 12.0408 28.0404C11.1204 28.9607 9.82114 29.3333 8.33366 29.3333H5.66699C4.17951 29.3333 2.88023 28.9607 1.95989 28.0404C1.03954 27.1201 0.666992 25.8208 0.666992 24.3333V21.6666C0.666992 20.1791 1.03954 18.8799 1.95989 17.9595ZM3.3741 19.3737C2.96111 19.7867 2.66699 20.4874 2.66699 21.6666V24.3333C2.66699 25.5125 2.96111 26.2132 3.3741 26.6262C3.78709 27.0392 4.4878 27.3333 5.66699 27.3333H8.33366C9.51285 27.3333 10.2136 27.0392 10.6266 26.6262C11.0395 26.2132 11.3337 25.5125 11.3337 24.3333V21.6666C11.3337 20.4874 11.0395 19.7867 10.6266 19.3737C10.2136 18.9607 9.51285 18.6666 8.33366 18.6666H5.66699C4.4878 18.6666 3.78709 18.9607 3.3741 19.3737Z" fill="#A4A4A4"></path>
    <path fill-rule="evenodd" clip-rule="evenodd" d="M7.00033 2.66663C4.60709 2.66663 2.66699 4.60673 2.66699 6.99996C2.66699 9.39319 4.60709 11.3333 7.00033 11.3333C9.39356 11.3333 11.3337 9.39319 11.3337 6.99996C11.3337 4.60673 9.39356 2.66663 7.00033 2.66663ZM0.666992 6.99996C0.666992 3.50216 3.50252 0.666626 7.00033 0.666626C10.4981 0.666626 13.3337 3.50216 13.3337 6.99996C13.3337 10.4978 10.4981 13.3333 7.00033 13.3333C3.50252 13.3333 0.666992 10.4978 0.666992 6.99996Z" fill="#A4A4A4"></path>
    <path fill-rule="evenodd" clip-rule="evenodd" d="M23.0003 18.6666C20.6071 18.6666 18.667 20.6067 18.667 23C18.667 25.3932 20.6071 27.3333 23.0003 27.3333C25.3936 27.3333 27.3337 25.3932 27.3337 23C27.3337 20.6067 25.3936 18.6666 23.0003 18.6666ZM16.667 23C16.667 19.5022 19.5025 16.6666 23.0003 16.6666C26.4981 16.6666 29.3337 19.5022 29.3337 23C29.3337 26.4978 26.4981 29.3333 23.0003 29.3333C19.5025 29.3333 16.667 26.4978 16.667 23Z" fill="#A4A4A4"></path>
  </symbol>
  <symbol fill="none" xmlns="http://www.w3.org/2000/svg" viewBox="0 0 30 30" id="delivery">
    <path fill-rule="evenodd" clip-rule="evenodd" d="M1.47338 3.91308C2.54959 1.98225 4.6233 0.666626 7.00018 0.666626H19.0002C19.5525 0.666626 20.0002 1.11434 20.0002 1.66663V15C20.0002 17.0189 18.3525 18.6666 16.3335 18.6666H15.0002C14.4479 18.6666 14.0002 18.2189 14.0002 17.6666C14.0002 17.1143 14.4479 16.6666 15.0002 16.6666H16.3335C17.2479 16.6666 18.0002 15.9143 18.0002 15V2.66663H7.00018C5.37706 2.66663 3.95747 3.56431 3.22034 4.8868C2.95146 5.36921 2.34241 5.54231 1.86 5.27342C1.37759 5.00454 1.2045 4.39549 1.47338 3.91308Z" fill="#A4A4A4"></path>
    <path fill-rule="evenodd" clip-rule="evenodd" d="M18.0003 5.66663C18.0003 5.11434 18.448 4.66663 19.0003 4.66663H21.4537C22.7788 4.66663 23.984 5.38395 24.6385 6.51117L24.6418 6.51685L24.6418 6.51686L26.9217 10.5035C27.0987 10.813 27.0975 11.1933 26.9186 11.5017C26.7397 11.8101 26.4102 12 26.0536 12H24.3337C24.1526 12 24.0003 12.1522 24.0003 12.3333V16.3333C24.0003 16.5143 24.1526 16.6666 24.3337 16.6666H28.3337C28.8859 16.6666 29.3337 17.1143 29.3337 17.6666V21.6666C29.3337 24.4322 27.0993 26.6666 24.3337 26.6666H23.0003C22.448 26.6666 22.0003 26.2189 22.0003 25.6666C22.0003 24.7522 21.248 24 20.3337 24C19.4193 24 18.667 24.7522 18.667 25.6666C18.667 26.2189 18.2193 26.6666 17.667 26.6666H12.3337C11.7814 26.6666 11.3337 26.2189 11.3337 25.6666C11.3337 24.7522 10.5814 24 9.66699 24C8.75261 24 8.00033 24.7522 8.00033 25.6666C8.00033 26.2189 7.55261 26.6666 7.00033 26.6666H5.66699C2.90137 26.6666 0.666992 24.4322 0.666992 21.6666C0.666992 21.1143 1.11471 20.6666 1.66699 20.6666C2.21928 20.6666 2.66699 21.1143 2.66699 21.6666C2.66699 23.3277 4.00594 24.6666 5.66699 24.6666H6.1394C6.57668 23.1308 7.99445 22 9.66699 22C11.3395 22 12.7573 23.1308 13.1946 24.6666H16.8061C17.2434 23.1308 18.6611 22 20.3337 22C22.0062 22 23.424 23.1308 23.8612 24.6666H24.3337C25.9947 24.6666 27.3337 23.3277 27.3337 21.6666V18.6666H24.3337C23.048 18.6666 22.0003 17.6189 22.0003 16.3333V12.3333C22.0003 11.049 23.0459 10.0021 24.3298 9.99996L22.9089 7.51544C22.9084 7.51461 22.9079 7.51378 22.9074 7.51295C22.6017 6.98831 22.0476 6.66663 21.4537 6.66663H20.0003V15C20.0003 17.0189 18.3526 18.6666 16.3337 18.6666H15.0003C14.448 18.6666 14.0003 18.2189 14.0003 17.6666C14.0003 17.1143 14.448 16.6666 15.0003 16.6666H16.3337C17.248 16.6666 18.0003 15.9143 18.0003 15V5.66663Z" fill="#A4A4A4"></path>
    <path fill-rule="evenodd" clip-rule="evenodd" d="M9.66667 24C8.74619 24 8 24.7462 8 25.6667C8 26.5871 8.74619 27.3333 9.66667 27.3333C10.5871 27.3333 11.3333 26.5871 11.3333 25.6667C11.3333 24.7462 10.5871 24 9.66667 24ZM6 25.6667C6 23.6416 7.64162 22 9.66667 22C11.6917 22 13.3333 23.6416 13.3333 25.6667C13.3333 27.6917 11.6917 29.3333 9.66667 29.3333C7.64162 29.3333 6 27.6917 6 25.6667Z" fill="#A4A4A4"></path>
    <path fill-rule="evenodd" clip-rule="evenodd" d="M20.3337 23.9999C19.4132 23.9999 18.667 24.7461 18.667 25.6666C18.667 26.5871 19.4132 27.3333 20.3337 27.3333C21.2541 27.3333 22.0003 26.5871 22.0003 25.6666C22.0003 24.7461 21.2541 23.9999 20.3337 23.9999ZM16.667 25.6666C16.667 23.6416 18.3086 21.9999 20.3337 21.9999C22.3587 21.9999 24.0003 23.6416 24.0003 25.6666C24.0003 27.6917 22.3587 29.3333 20.3337 29.3333C18.3086 29.3333 16.667 27.6917 16.667 25.6666Z" fill="#A4A4A4"></path>
    <path fill-rule="evenodd" clip-rule="evenodd" d="M24.3333 12C24.1523 12 24 12.1523 24 12.3333V16.3333C24 16.5144 24.1523 16.6667 24.3333 16.6667H27.3333V15.265L25.4723 12H24.3333ZM22 12.3333C22 11.0477 23.0477 10 24.3333 10H26.0533C26.4125 10 26.7442 10.1927 26.9221 10.5048L29.2021 14.5048C29.2881 14.6557 29.3333 14.8263 29.3333 15V17.6667C29.3333 18.219 28.8856 18.6667 28.3333 18.6667H24.3333C23.0477 18.6667 22 17.619 22 16.3333V12.3333Z" fill="#A4A4A4"></path>
    <path fill-rule="evenodd" clip-rule="evenodd" d="M0.666992 9.66663C0.666992 9.11434 1.11471 8.66663 1.66699 8.66663H9.66699C10.2193 8.66663 10.667 9.11434 10.667 9.66663C10.667 10.2189 10.2193 10.6666 9.66699 10.6666H1.66699C1.11471 10.6666 0.666992 10.2189 0.666992 9.66663Z" fill="#A4A4A4"></path>
    <path fill-rule="evenodd" clip-rule="evenodd" d="M0.666992 13.6666C0.666992 13.1143 1.11471 12.6666 1.66699 12.6666H7.00033C7.55261 12.6666 8.00033 13.1143 8.00033 13.6666C8.00033 14.2189 7.55261 14.6666 7.00033 14.6666H1.66699C1.11471 14.6666 0.666992 14.2189 0.666992 13.6666Z" fill="#A4A4A4"></path>
    <path fill-rule="evenodd" clip-rule="evenodd" d="M0.666992 17.6666C0.666992 17.1143 1.11471 16.6666 1.66699 16.6666H4.33366C4.88594 16.6666 5.33366 17.1143 5.33366 17.6666C5.33366 18.2189 4.88594 18.6666 4.33366 18.6666H1.66699C1.11471 18.6666 0.666992 18.2189 0.666992 17.6666Z" fill="#A4A4A4"></path>
  </symbol>
</svg>