<svg width="0" height="0" class="hidden">
  <symbol fill="none" xmlns="http://www.w3.org/2000/svg" viewBox="0 0 24 24" id="location">
    <path fill-rule="evenodd" clip-rule="evenodd" d="M11.9999 7.93994C10.691 7.93994 9.62988 9.00103 9.62988 10.3099C9.62988 11.6189 10.691 12.6799 11.9999 12.6799C13.3088 12.6799 14.3699 11.6189 14.3699 10.3099C14.3699 9.00103 13.3088 7.93994 11.9999 7.93994ZM8.12988 10.3099C8.12988 8.1726 9.86254 6.43994 11.9999 6.43994C14.1372 6.43994 15.8699 8.1726 15.8699 10.3099C15.8699 12.4473 14.1372 14.1799 11.9999 14.1799C9.86254 14.1799 8.12988 12.4473 8.12988 10.3099Z" fill="#666666"></path>
    <path fill-rule="evenodd" clip-rule="evenodd" d="M12.0034 2.75C8.58671 2.74769 5.24485 4.73032 4.35162 8.65591C3.29456 13.3261 6.18829 17.3762 8.91039 19.9997C10.6409 21.661 13.3609 21.659 15.0794 20.0004L15.0807 19.999C17.8127 17.3756 20.7059 13.3354 19.6487 8.6656L19.6487 8.66556C18.7602 4.73971 15.4204 2.75231 12.0034 2.75ZM21.1117 8.33441C20.0402 3.60029 15.985 1.25269 12.0045 1.25C8.02383 1.24731 3.96581 3.58953 2.88889 8.32364L2.88871 8.32441C1.64601 13.8139 5.07199 18.3836 7.86975 21.08L7.87069 21.0809C10.1801 23.2989 13.8193 23.3008 16.1207 21.08C18.9285 18.3834 22.3544 13.8239 21.1117 8.33441Z" fill="#666666"></path>
  </symbol>
  <symbol fill="none" xmlns="http://www.w3.org/2000/svg" viewBox="0 0 24 24" id="email">
    <path fill-rule="evenodd" clip-rule="evenodd" d="M3.88534 5.2371C3.20538 5.86848 2.75 6.89295 2.75 8.5V15.5C2.75 17.107 3.20538 18.1315 3.88534 18.7629C4.57535 19.4036 5.61497 19.75 7 19.75H17C18.385 19.75 19.4246 19.4036 20.1147 18.7629C20.7946 18.1315 21.25 17.107 21.25 15.5V8.5C21.25 6.89295 20.7946 5.86848 20.1147 5.2371C19.4246 4.59637 18.385 4.25 17 4.25H7C5.61497 4.25 4.57535 4.59637 3.88534 5.2371ZM2.86466 4.1379C3.92465 3.15363 5.38503 2.75 7 2.75H17C18.615 2.75 20.0754 3.15363 21.1353 4.1379C22.2054 5.13152 22.75 6.60705 22.75 8.5V15.5C22.75 17.393 22.2054 18.8685 21.1353 19.8621C20.0754 20.8464 18.615 21.25 17 21.25H7C5.38503 21.25 3.92465 20.8464 2.86466 19.8621C1.79462 18.8685 1.25 17.393 1.25 15.5V8.5C1.25 6.60705 1.79462 5.13152 2.86466 4.1379Z" fill="#666666"></path>
    <path fill-rule="evenodd" clip-rule="evenodd" d="M17.586 8.53196C17.8445 8.85561 17.7917 9.32754 17.4681 9.58605L14.3372 12.0868C13.0338 13.1244 10.9563 13.1244 9.65289 12.0868L9.65104 12.0853L6.53105 9.58531C6.2078 9.3263 6.15573 8.85429 6.41474 8.53105C6.67375 8.2078 7.14576 8.15573 7.46901 8.41474L10.588 10.914C11.3446 11.5155 12.6462 11.5154 13.4025 10.9135C13.4027 10.9135 13.4024 10.9136 13.4025 10.9135L16.532 8.41401C16.8556 8.15551 17.3275 8.20832 17.586 8.53196Z" fill="#666666"></path>
  </symbol>
</svg>